<svg width="50" height="35" viewBox="0 0 50 35" fill="none" xmlns="http://www.w3.org/2000/svg">
<path d="M17.1016 22V14.4238H14.2715V13.4102H21.0801V14.4238H18.2383V22H17.1016ZM25.041 19.9961L26.1309 20.1309C25.959 20.7676 25.6406 21.2617 25.1758 21.6133C24.7109 21.9648 24.1172 22.1406 23.3945 22.1406C22.4844 22.1406 21.7617 21.8613 21.2266 21.3027C20.6953 20.7402 20.4297 19.9531 20.4297 18.9414C20.4297 17.8945 20.6992 17.082 21.2383 16.5039C21.7773 15.9258 22.4766 15.6367 23.3359 15.6367C24.168 15.6367 24.8477 15.9199 25.375 16.4863C25.9023 17.0527 26.166 17.8496 26.166 18.877C26.166 18.9395 26.1641 19.0332 26.1602 19.1582H21.5195C21.5586 19.8418 21.752 20.3652 22.0996 20.7285C22.4473 21.0918 22.8809 21.2734 23.4004 21.2734C23.7871 21.2734 24.1172 21.1719 24.3906 20.9688C24.6641 20.7656 24.8809 20.4414 25.041 19.9961ZM21.5781 18.291H25.0527C25.0059 17.7676 24.873 17.375 24.6543 17.1133C24.3184 16.707 23.8828 16.5039 23.3477 16.5039C22.8633 16.5039 22.4551 16.666 22.123 16.9902C21.7949 17.3145 21.6133 17.748 21.5781 18.291ZM26.7578 22L29.0312 18.7656L26.9277 15.7773H28.2461L29.2012 17.2363C29.3809 17.5137 29.5254 17.7461 29.6348 17.9336C29.8066 17.6758 29.9648 17.4473 30.1094 17.248L31.1582 15.7773H32.418L30.2676 18.707L32.582 22H31.2871L30.0098 20.0664L29.6699 19.5449L28.0352 22H26.7578ZM35.7637 21.0566L35.916 21.9883C35.6191 22.0508 35.3535 22.082 35.1191 22.082C34.7363 22.082 34.4395 22.0215 34.2285 21.9004C34.0176 21.7793 33.8691 21.6211 33.7832 21.4258C33.6973 21.2266 33.6543 20.8105 33.6543 20.1777V16.5977H32.8809V15.7773H33.6543V14.2363L34.7031 13.6035V15.7773H35.7637V16.5977H34.7031V20.2363C34.7031 20.5371 34.7207 20.7305 34.7559 20.8164C34.7949 20.9023 34.8555 20.9707 34.9375 21.0215C35.0234 21.0723 35.1445 21.0977 35.3008 21.0977C35.418 21.0977 35.5723 21.084 35.7637 21.0566Z" fill="black"/>
<rect x="0.5" y="0.5" width="49" height="34" stroke="black" stroke-dasharray="6 6"/>
</svg>
